{
    "patcher": {
        "fileversion": 1,
        "appversion": {
            "major": 9,
            "minor": 1,
            "revision": 2,
            "architecture": "x64",
            "modernui": 1
        },
        "classnamespace": "box",
        "rect": [ 33.0, 84.0, 955.0, 787.0 ],
        "boxes": [
            {
                "box": {
                    "id": "obj-15",
                    "linecount": 2,
                    "maxclass": "comment",
                    "numinlets": 1,
                    "numoutlets": 0,
                    "patching_rect": [ 772.6495804786682, 229.00000327825546, 150.0, 34.0 ],
                    "text": "can make it have a float output, and change range"
                }
            },
            {
                "box": {
                    "format": 6,
                    "id": "obj-11",
                    "maxclass": "flonum",
                    "numinlets": 1,
                    "numoutlets": 2,
                    "outlettype": [ "", "bang" ],
                    "parameter_enable": 0,
                    "patching_rect": [ 733.3333407640457, 389.6000058054924, 50.0, 22.0 ]
                }
            },
            {
                "box": {
                    "floatoutput": 1,
                    "id": "obj-6",
                    "maxclass": "slider",
                    "numinlets": 1,
                    "numoutlets": 1,
                    "outlettype": [ "" ],
                    "parameter_enable": 0,
                    "patching_rect": [ 733.3333407640457, 222.00000327825546, 20.0, 140.0 ],
                    "size": 1.0
                }
            },
            {
                "box": {
                    "id": "obj-4",
                    "maxclass": "message",
                    "numinlets": 2,
                    "numoutlets": 1,
                    "outlettype": [ "" ],
                    "patching_rect": [ 733.3333407640457, 175.15555900335312, 50.0, 22.0 ],
                    "text": "0"
                }
            },
            {
                "box": {
                    "id": "obj-45",
                    "linecount": 2,
                    "maxclass": "comment",
                    "numinlets": 1,
                    "numoutlets": 0,
                    "patching_rect": [ 772.6495804786682, 19.600001871585846, 150.0, 34.0 ],
                    "text": "slider (s)\nstandard is 0-127"
                }
            },
            {
                "box": {
                    "id": "obj-43",
                    "maxclass": "slider",
                    "numinlets": 1,
                    "numoutlets": 1,
                    "outlettype": [ "" ],
                    "parameter_enable": 0,
                    "patching_rect": [ 733.3333407640457, 19.600001871585846, 20.0, 140.0 ]
                }
            },
            {
                "box": {
                    "id": "obj-41",
                    "linecount": 2,
                    "maxclass": "comment",
                    "numinlets": 1,
                    "numoutlets": 0,
                    "patching_rect": [ 404.80000603199005, 125.60000187158585, 150.0, 34.0 ],
                    "text": "provides new number input"
                }
            },
            {
                "box": {
                    "id": "obj-37",
                    "maxclass": "comment",
                    "numinlets": 1,
                    "numoutlets": 0,
                    "patching_rect": [ 522.0000070333481, 71.20000106096268, 150.0, 20.0 ],
                    "text": "float (f)"
                }
            },
            {
                "box": {
                    "id": "obj-34",
                    "maxclass": "comment",
                    "numinlets": 1,
                    "numoutlets": 0,
                    "patching_rect": [ 472.4000062942505, 22.40000033378601, 150.0, 20.0 ],
                    "text": "number (i) for integer"
                }
            },
            {
                "box": {
                    "format": 6,
                    "id": "obj-32",
                    "maxclass": "flonum",
                    "numinlets": 1,
                    "numoutlets": 2,
                    "outlettype": [ "", "bang" ],
                    "parameter_enable": 0,
                    "patching_rect": [ 432.40000569820404, 70.40000104904175, 50.0, 22.0 ]
                }
            },
            {
                "box": {
                    "id": "obj-30",
                    "maxclass": "number",
                    "numinlets": 1,
                    "numoutlets": 2,
                    "outlettype": [ "", "bang" ],
                    "parameter_enable": 0,
                    "patching_rect": [ 392.4000051021576, 21.600000321865082, 50.0, 22.0 ]
                }
            },
            {
                "box": {
                    "id": "obj-24",
                    "maxclass": "message",
                    "numinlets": 2,
                    "numoutlets": 1,
                    "outlettype": [ "" ],
                    "patching_rect": [ 192.3076942563057, 36.75213712453842, 50.0, 22.0 ],
                    "text": "0"
                }
            },
            {
                "box": {
                    "id": "obj-22",
                    "linecount": 3,
                    "maxclass": "comment",
                    "numinlets": 1,
                    "numoutlets": 0,
                    "patching_rect": [ 192.3076942563057, 68.37606906890869, 150.0, 48.0 ],
                    "text": "use message box right cold inlet as a console log\nfor debugging"
                }
            },
            {
                "box": {
                    "id": "obj-20",
                    "maxclass": "comment",
                    "numinlets": 1,
                    "numoutlets": 0,
                    "patching_rect": [ 436.8000065088272, 300.8000044822693, 150.0, 34.0 ],
                    "text": "button (b) aka bang\n"
                }
            },
            {
                "box": {
                    "id": "obj-18",
                    "linecount": 6,
                    "maxclass": "comment",
                    "numinlets": 1,
                    "numoutlets": 0,
                    "patching_rect": [ 436.8000065088272, 389.6000058054924, 150.0, 89.0 ],
                    "text": "message(m) round corners\nclickable when locked\nhot inlet - red - stores and bangs\ncold inlet - blue - stores"
                }
            },
            {
                "box": {
                    "id": "obj-16",
                    "maxclass": "comment",
                    "numinlets": 1,
                    "numoutlets": 0,
                    "patching_rect": [ 436.8000065088272, 176.4000025987625, 150.0, 20.0 ],
                    "text": "toggle (t)  on/off"
                }
            },
            {
                "box": {
                    "id": "obj-14",
                    "maxclass": "toggle",
                    "numinlets": 1,
                    "numoutlets": 1,
                    "outlettype": [ "int" ],
                    "parameter_enable": 0,
                    "patching_rect": [ 342.4000051021576, 174.4000025987625, 24.0, 24.0 ]
                }
            },
            {
                "box": {
                    "id": "obj-12",
                    "linecount": 4,
                    "maxclass": "comment",
                    "numinlets": 1,
                    "numoutlets": 0,
                    "patching_rect": [ 520.8000077605247, 502.4000074863434, 150.0, 62.0 ],
                    "text": "object (n) function based on name\n@ is like a nested attribute\n1 indicates its on"
                }
            },
            {
                "box": {
                    "id": "obj-10",
                    "linecount": 3,
                    "maxclass": "comment",
                    "numinlets": 1,
                    "numoutlets": 0,
                    "patching_rect": [ 436.8000065088272, 222.00000327825546, 150.0, 48.0 ],
                    "text": "metronome\nrequires toggle on/off\nargument sets time in ms"
                }
            },
            {
                "box": {
                    "id": "obj-8",
                    "maxclass": "newobj",
                    "numinlets": 2,
                    "numoutlets": 1,
                    "outlettype": [ "bang" ],
                    "patching_rect": [ 342.4000051021576, 223.20000332593918, 69.0, 22.0 ],
                    "text": "metro 1000"
                }
            },
            {
                "box": {
                    "id": "obj-7",
                    "maxclass": "button",
                    "numinlets": 1,
                    "numoutlets": 1,
                    "outlettype": [ "bang" ],
                    "parameter_enable": 0,
                    "patching_rect": [ 342.4000051021576, 300.8000044822693, 24.0, 24.0 ]
                }
            },
            {
                "box": {
                    "id": "obj-3",
                    "maxclass": "message",
                    "numinlets": 2,
                    "numoutlets": 1,
                    "outlettype": [ "" ],
                    "patching_rect": [ 342.4000051021576, 392.8000058531761, 66.0, 22.0 ],
                    "text": "hello world"
                }
            },
            {
                "box": {
                    "id": "obj-1",
                    "maxclass": "newobj",
                    "numinlets": 1,
                    "numoutlets": 0,
                    "patching_rect": [ 342.4000051021576, 501.60000747442245, 91.0, 22.0 ],
                    "text": "print @popup 1"
                }
            }
        ],
        "lines": [
            {
                "patchline": {
                    "destination": [ "obj-8", 0 ],
                    "source": [ "obj-14", 0 ]
                }
            },
            {
                "patchline": {
                    "destination": [ "obj-1", 0 ],
                    "source": [ "obj-3", 0 ]
                }
            },
            {
                "patchline": {
                    "destination": [ "obj-24", 1 ],
                    "order": 1,
                    "source": [ "obj-30", 0 ]
                }
            },
            {
                "patchline": {
                    "destination": [ "obj-8", 1 ],
                    "order": 0,
                    "source": [ "obj-30", 0 ]
                }
            },
            {
                "patchline": {
                    "destination": [ "obj-4", 1 ],
                    "source": [ "obj-43", 0 ]
                }
            },
            {
                "patchline": {
                    "destination": [ "obj-11", 0 ],
                    "source": [ "obj-6", 0 ]
                }
            },
            {
                "patchline": {
                    "destination": [ "obj-3", 0 ],
                    "source": [ "obj-7", 0 ]
                }
            },
            {
                "patchline": {
                    "destination": [ "obj-7", 0 ],
                    "source": [ "obj-8", 0 ]
                }
            }
        ],
        "autosave": 0,
        "oscreceiveudpport": 0
    }
}