{
    "patcher": {
        "fileversion": 1,
        "appversion": {
            "major": 9,
            "minor": 1,
            "revision": 2,
            "architecture": "x64",
            "modernui": 1
        },
        "classnamespace": "box",
        "rect": [ 46.0, 88.0, 1319.0, 783.0 ],
        "boxes": [
            {
                "box": {
                    "id": "obj-106",
                    "maxclass": "comment",
                    "numinlets": 1,
                    "numoutlets": 0,
                    "patching_rect": [ 694.0, 352.0, 150.0, 20.0 ],
                    "text": "The stuff to care about"
                }
            },
            {
                "box": {
                    "id": "obj-104",
                    "linecount": 2,
                    "maxclass": "comment",
                    "numinlets": 1,
                    "numoutlets": 0,
                    "patching_rect": [ 1164.0, 538.5185008645058, 148.1481432914734, 34.0 ],
                    "text": "dedicated patcher window for video"
                }
            },
            {
                "box": {
                    "id": "obj-102",
                    "maxclass": "newobj",
                    "numinlets": 1,
                    "numoutlets": 2,
                    "outlettype": [ "bang", "" ],
                    "patching_rect": [ 1003.7036707997322, 538.5185008645058, 151.0, 22.0 ],
                    "text": "jit.window 4 char 1000 640"
                }
            },
            {
                "box": {
                    "clipheight": 29.666666666666668,
                    "data": {
                        "clips": [
                            {
                                "absolutepath": "chickens.mp4",
                                "filename": "chickens.mp4",
                                "filekind": "moviefile",
                                "id": "u466001150",
                                "selection": [ 0.0, 1.0 ],
                                "loop": 1,
                                "content_state": {
                                    "loop": 1
                                }
                            },
                            {
                                "absolutepath": "ozone.mov",
                                "filename": "ozone.mov",
                                "filekind": "moviefile",
                                "id": "u745001180",
                                "selection": [ 0.0, 1.0 ],
                                "loop": 1,
                                "content_state": {
                                    "loop": 1
                                }
                            },
                            {
                                "absolutepath": "dvkite.mov",
                                "filename": "dvkite.mov",
                                "filekind": "moviefile",
                                "id": "u073001243",
                                "selection": [ 0.0, 1.0 ],
                                "loop": 1,
                                "content_state": {
                                    "loop": 1
                                }
                            }
                        ]
                    },
                    "drawto": "",
                    "id": "obj-101",
                    "loop": 1,
                    "maxclass": "jit.playlist",
                    "numinlets": 1,
                    "numoutlets": 3,
                    "outlettype": [ "jit_matrix", "", "dictionary" ],
                    "output_texture": 0,
                    "parameter_enable": 0,
                    "patching_rect": [ 728.4, 385.0, 150.0, 92.0 ],
                    "saved_attribute_attributes": {
                        "candicane2": {
                            "expression": ""
                        },
                        "candicane3": {
                            "expression": ""
                        },
                        "candicane4": {
                            "expression": ""
                        },
                        "candicane5": {
                            "expression": ""
                        },
                        "candicane6": {
                            "expression": ""
                        },
                        "candicane7": {
                            "expression": ""
                        },
                        "candicane8": {
                            "expression": ""
                        }
                    }
                }
            },
            {
                "box": {
                    "id": "obj-100",
                    "maxclass": "comment",
                    "numinlets": 1,
                    "numoutlets": 0,
                    "patching_rect": [ 887.4073783159256, 421.0, 74.81481236219406, 20.0 ],
                    "text": "jit.playlist"
                }
            },
            {
                "box": {
                    "id": "obj-95",
                    "maxclass": "jit.pwindow",
                    "numinlets": 1,
                    "numoutlets": 2,
                    "outlettype": [ "jit_matrix", "" ],
                    "patching_rect": [ 728.1481242775917, 538.5185008645058, 214.07406705617905, 196.29628986120224 ],
                    "sync": 1
                }
            },
            {
                "box": {
                    "id": "obj-94",
                    "maxclass": "newobj",
                    "numinlets": 1,
                    "numoutlets": 2,
                    "outlettype": [ "jit_matrix", "" ],
                    "patching_rect": [ 728.4, 499.0, 130.0, 22.0 ],
                    "text": "jit.matrix 4 char 120 64"
                }
            },
            {
                "box": {
                    "id": "obj-93",
                    "maxclass": "comment",
                    "numinlets": 1,
                    "numoutlets": 0,
                    "patching_rect": [ 1164.0, 352.0, 68.0, 20.0 ],
                    "text": "jit.pwindow"
                }
            },
            {
                "box": {
                    "id": "obj-91",
                    "maxclass": "comment",
                    "numinlets": 1,
                    "numoutlets": 0,
                    "patching_rect": [ 1019.0, 51.0, 150.0, 20.0 ],
                    "text": "random stuff"
                }
            },
            {
                "box": {
                    "id": "obj-89",
                    "maxclass": "jit.pwindow",
                    "numinlets": 1,
                    "numoutlets": 2,
                    "outlettype": [ "jit_matrix", "" ],
                    "patching_rect": [ 1019.0, 305.0, 129.0, 106.0 ],
                    "sync": 1
                }
            },
            {
                "box": {
                    "id": "obj-87",
                    "linecount": 2,
                    "maxclass": "comment",
                    "numinlets": 1,
                    "numoutlets": 0,
                    "patching_rect": [ 1177.0, 128.0, 128.0, 34.0 ],
                    "text": "info - # of sliders 256\nrange 0., 1."
                }
            },
            {
                "box": {
                    "id": "obj-84",
                    "maxclass": "button",
                    "numinlets": 1,
                    "numoutlets": 1,
                    "outlettype": [ "bang" ],
                    "parameter_enable": 0,
                    "patching_rect": [ 975.0, 248.0, 24.0, 24.0 ]
                }
            },
            {
                "box": {
                    "id": "obj-82",
                    "maxclass": "newobj",
                    "numinlets": 1,
                    "numoutlets": 2,
                    "outlettype": [ "jit_matrix", "" ],
                    "patching_rect": [ 1019.0, 256.0, 197.0, 22.0 ],
                    "text": "jit.matrix mymultislider 4 char 16 16"
                }
            },
            {
                "box": {
                    "id": "obj-81",
                    "maxclass": "newobj",
                    "numinlets": 1,
                    "numoutlets": 2,
                    "outlettype": [ "", "" ],
                    "patching_rect": [ 1019.0, 215.0, 115.0, 22.0 ],
                    "text": "jit.fill mymultislider 2"
                }
            },
            {
                "box": {
                    "id": "obj-80",
                    "maxclass": "comment",
                    "numinlets": 1,
                    "numoutlets": 0,
                    "patching_rect": [ 1171.0, 108.0, 73.0, 20.0 ],
                    "text": "multislider"
                }
            },
            {
                "box": {
                    "id": "obj-78",
                    "maxclass": "multislider",
                    "numinlets": 1,
                    "numoutlets": 2,
                    "outlettype": [ "", "" ],
                    "parameter_enable": 0,
                    "patching_rect": [ 1017.0, 90.0, 131.0, 80.0 ],
                    "setminmax": [ 0.0, 1.0 ],
                    "size": 256,
                    "varname": "mymultislider"
                }
            },
            {
                "box": {
                    "id": "obj-75",
                    "maxclass": "comment",
                    "numinlets": 1,
                    "numoutlets": 0,
                    "patching_rect": [ 158.49380803108215, 1334.5680078268051, 123.0, 20.0 ],
                    "text": "not super useful atm"
                }
            },
            {
                "box": {
                    "id": "obj-69",
                    "linecount": 2,
                    "maxclass": "comment",
                    "numinlets": 1,
                    "numoutlets": 0,
                    "patching_rect": [ 195.53084802627563, 1275.3087438344955, 78.0, 34.0 ],
                    "text": "matrix of pixel values"
                }
            },
            {
                "box": {
                    "id": "obj-67",
                    "maxclass": "comment",
                    "numinlets": 1,
                    "numoutlets": 0,
                    "patching_rect": [ 199.23455202579498, 1233.333431839943, 72.0, 20.0 ],
                    "text": "jit.cellblock"
                }
            },
            {
                "box": {
                    "fontface": 0,
                    "fontname": "Arial",
                    "fontsize": 12.0,
                    "id": "obj-65",
                    "maxclass": "jit.cellblock",
                    "numinlets": 2,
                    "numoutlets": 4,
                    "outlettype": [ "list", "", "", "" ],
                    "patching_rect": [ 277.0123360157013, 1154.3210798501968, 680.0, 201.0 ]
                }
            },
            {
                "box": {
                    "id": "obj-55",
                    "linecount": 2,
                    "maxclass": "comment",
                    "numinlets": 1,
                    "numoutlets": 0,
                    "patching_rect": [ 330.09876000881195, 862.9630318880081, 278.0, 34.0 ],
                    "text": "queue-based metronome -> use for video. \nallocates resources to sound tasks first"
                }
            },
            {
                "box": {
                    "id": "obj-56",
                    "maxclass": "comment",
                    "numinlets": 1,
                    "numoutlets": 0,
                    "patching_rect": [ 398.0, 827.1605598926544, 157.0, 20.0 ],
                    "text": "change speed (ms refresh)"
                }
            },
            {
                "box": {
                    "id": "obj-57",
                    "maxclass": "number",
                    "numinlets": 1,
                    "numoutlets": 2,
                    "outlettype": [ "", "bang" ],
                    "parameter_enable": 0,
                    "patching_rect": [ 341.20987200737, 825.9259918928146, 50.0, 22.0 ]
                }
            },
            {
                "box": {
                    "id": "obj-58",
                    "maxclass": "toggle",
                    "numinlets": 1,
                    "numoutlets": 1,
                    "outlettype": [ "int" ],
                    "parameter_enable": 0,
                    "patching_rect": [ 277.0123360157013, 824.6914238929749, 24.0, 24.0 ]
                }
            },
            {
                "box": {
                    "id": "obj-59",
                    "maxclass": "newobj",
                    "numinlets": 2,
                    "numoutlets": 1,
                    "outlettype": [ "bang" ],
                    "patching_rect": [ 277.0123360157013, 861.7284638881683, 46.0, 22.0 ],
                    "text": "qmetro"
                }
            },
            {
                "box": {
                    "id": "obj-60",
                    "maxclass": "comment",
                    "numinlets": 1,
                    "numoutlets": 0,
                    "patching_rect": [ 360.9629600048065, 925.925999879837, 88.0, 20.0 ],
                    "text": "w  h  in pixels"
                }
            },
            {
                "box": {
                    "id": "obj-61",
                    "maxclass": "comment",
                    "numinlets": 1,
                    "numoutlets": 0,
                    "patching_rect": [ 443.67901599407196, 1007.4074878692627, 86.0, 20.0 ],
                    "text": "jit.pwindow"
                }
            },
            {
                "box": {
                    "id": "obj-62",
                    "maxclass": "button",
                    "numinlets": 1,
                    "numoutlets": 1,
                    "outlettype": [ "bang" ],
                    "parameter_enable": 0,
                    "patching_rect": [ 277.0123360157013, 900.0000718832016, 24.0, 24.0 ]
                }
            },
            {
                "box": {
                    "id": "obj-63",
                    "maxclass": "jit.pwindow",
                    "numinlets": 1,
                    "numoutlets": 2,
                    "outlettype": [ "jit_matrix", "" ],
                    "patching_rect": [ 277.0123360157013, 1000.000079870224, 151.0, 143.0 ],
                    "sync": 1
                }
            },
            {
                "box": {
                    "id": "obj-64",
                    "maxclass": "newobj",
                    "numinlets": 1,
                    "numoutlets": 2,
                    "outlettype": [ "jit_matrix", "" ],
                    "patching_rect": [ 277.0123360157013, 948.1482238769531, 119.0, 22.0 ],
                    "text": "jit.noise 1 char 10 10"
                }
            },
            {
                "box": {
                    "id": "obj-49",
                    "maxclass": "comment",
                    "numinlets": 1,
                    "numoutlets": 0,
                    "patching_rect": [ 361.0, 737.0, 74.0, 20.0 ],
                    "text": "jit.fpsgui"
                }
            },
            {
                "box": {
                    "fontface": 0,
                    "fontname": "Arial",
                    "fontsize": 12.0,
                    "id": "obj-47",
                    "maxclass": "jit.fpsgui",
                    "numinlets": 1,
                    "numoutlets": 2,
                    "outlettype": [ "", "" ],
                    "patching_rect": [ 277.0, 737.0, 80.0, 36.0 ]
                }
            },
            {
                "box": {
                    "id": "obj-46",
                    "linecount": 2,
                    "maxclass": "comment",
                    "numinlets": 1,
                    "numoutlets": 0,
                    "patching_rect": [ 330.0, 437.0, 278.0, 34.0 ],
                    "text": "queue-based metronome -> use for video. \nallocates resources to sound tasks first"
                }
            },
            {
                "box": {
                    "id": "obj-44",
                    "maxclass": "comment",
                    "numinlets": 1,
                    "numoutlets": 0,
                    "patching_rect": [ 398.0, 401.0, 157.0, 20.0 ],
                    "text": "change speed (ms refresh)"
                }
            },
            {
                "box": {
                    "id": "obj-42",
                    "maxclass": "number",
                    "numinlets": 1,
                    "numoutlets": 2,
                    "outlettype": [ "", "bang" ],
                    "parameter_enable": 0,
                    "patching_rect": [ 341.0, 400.0, 50.0, 22.0 ]
                }
            },
            {
                "box": {
                    "id": "obj-40",
                    "maxclass": "toggle",
                    "numinlets": 1,
                    "numoutlets": 1,
                    "outlettype": [ "int" ],
                    "parameter_enable": 0,
                    "patching_rect": [ 277.0, 399.0, 24.0, 24.0 ]
                }
            },
            {
                "box": {
                    "id": "obj-38",
                    "maxclass": "newobj",
                    "numinlets": 2,
                    "numoutlets": 1,
                    "outlettype": [ "bang" ],
                    "patching_rect": [ 277.0, 436.0, 46.0, 22.0 ],
                    "text": "qmetro"
                }
            },
            {
                "box": {
                    "id": "obj-37",
                    "maxclass": "comment",
                    "numinlets": 1,
                    "numoutlets": 0,
                    "patching_rect": [ 361.0, 500.0, 88.0, 20.0 ],
                    "text": "w  h  in pixels"
                }
            },
            {
                "box": {
                    "id": "obj-35",
                    "maxclass": "comment",
                    "numinlets": 1,
                    "numoutlets": 0,
                    "patching_rect": [ 443.0, 580.5, 86.0, 20.0 ],
                    "text": "jit.pwindow"
                }
            },
            {
                "box": {
                    "id": "obj-34",
                    "maxclass": "comment",
                    "numinlets": 1,
                    "numoutlets": 0,
                    "patching_rect": [ 797.0, 265.5, 86.0, 20.0 ],
                    "text": "jit.pwindow"
                }
            },
            {
                "box": {
                    "id": "obj-31",
                    "maxclass": "button",
                    "numinlets": 1,
                    "numoutlets": 1,
                    "outlettype": [ "bang" ],
                    "parameter_enable": 0,
                    "patching_rect": [ 277.0, 474.0, 24.0, 24.0 ]
                }
            },
            {
                "box": {
                    "id": "obj-32",
                    "maxclass": "jit.pwindow",
                    "numinlets": 1,
                    "numoutlets": 2,
                    "outlettype": [ "jit_matrix", "" ],
                    "patching_rect": [ 277.0, 574.0, 151.0, 143.0 ],
                    "sync": 1
                }
            },
            {
                "box": {
                    "id": "obj-33",
                    "maxclass": "newobj",
                    "numinlets": 1,
                    "numoutlets": 2,
                    "outlettype": [ "jit_matrix", "" ],
                    "patching_rect": [ 277.0, 522.0, 119.0, 22.0 ],
                    "text": "jit.noise 1 char 50 50"
                }
            },
            {
                "box": {
                    "id": "obj-30",
                    "maxclass": "comment",
                    "numinlets": 1,
                    "numoutlets": 0,
                    "patching_rect": [ 704.0, 144.0, 150.0, 20.0 ],
                    "text": "dimensions attribute"
                }
            },
            {
                "box": {
                    "id": "obj-19",
                    "maxclass": "button",
                    "numinlets": 1,
                    "numoutlets": 1,
                    "outlettype": [ "bang" ],
                    "parameter_enable": 0,
                    "patching_rect": [ 628.0, 159.0, 24.0, 24.0 ]
                }
            },
            {
                "box": {
                    "id": "obj-20",
                    "maxclass": "jit.pwindow",
                    "numinlets": 1,
                    "numoutlets": 2,
                    "outlettype": [ "jit_matrix", "" ],
                    "patching_rect": [ 628.0, 259.0, 159.0, 33.0 ],
                    "sync": 1
                }
            },
            {
                "box": {
                    "id": "obj-21",
                    "maxclass": "newobj",
                    "numinlets": 1,
                    "numoutlets": 2,
                    "outlettype": [ "jit_matrix", "" ],
                    "patching_rect": [ 628.0, 207.0, 103.0, 22.0 ],
                    "text": "jit.noise 4 char 10"
                }
            },
            {
                "box": {
                    "id": "obj-18",
                    "maxclass": "button",
                    "numinlets": 1,
                    "numoutlets": 1,
                    "outlettype": [ "bang" ],
                    "parameter_enable": 0,
                    "patching_rect": [ 277.0, 159.0, 24.0, 24.0 ]
                }
            },
            {
                "box": {
                    "id": "obj-14",
                    "maxclass": "comment",
                    "numinlets": 1,
                    "numoutlets": 0,
                    "patching_rect": [ 361.0, 181.0, 67.0, 20.0 ],
                    "text": "10 pixels"
                }
            },
            {
                "box": {
                    "id": "obj-12",
                    "maxclass": "comment",
                    "numinlets": 1,
                    "numoutlets": 0,
                    "patching_rect": [ 451.0, 266.0, 86.0, 20.0 ],
                    "text": "jit.pwindow"
                }
            },
            {
                "box": {
                    "id": "obj-10",
                    "maxclass": "jit.pwindow",
                    "numinlets": 1,
                    "numoutlets": 2,
                    "outlettype": [ "jit_matrix", "" ],
                    "patching_rect": [ 277.0, 259.0, 159.0, 33.0 ],
                    "sync": 1
                }
            },
            {
                "box": {
                    "id": "obj-9",
                    "linecount": 6,
                    "maxclass": "comment",
                    "numinlets": 1,
                    "numoutlets": 0,
                    "patching_rect": [ 24.0, 279.0, 166.0, 89.0 ],
                    "text": "data types:\n\nchar 0,255 (default) -> color\nfloat32 0., 1. (3d opengl)\nlong\nfloat64"
                }
            },
            {
                "box": {
                    "id": "obj-7",
                    "linecount": 8,
                    "maxclass": "comment",
                    "numinlets": 1,
                    "numoutlets": 0,
                    "patching_rect": [ 22.0, 141.0, 150.0, 117.0 ],
                    "text": "ARGB\n\nAlpha = 0 (transparency)\nRed = 1\nGreen = 2\nBlue = 3\n\n== 4 planes"
                }
            },
            {
                "box": {
                    "id": "obj-5",
                    "maxclass": "comment",
                    "numinlets": 1,
                    "numoutlets": 0,
                    "patching_rect": [ 394.0, 208.0, 150.0, 20.0 ],
                    "text": "generate white noise"
                }
            },
            {
                "box": {
                    "id": "obj-3",
                    "maxclass": "newobj",
                    "numinlets": 1,
                    "numoutlets": 2,
                    "outlettype": [ "jit_matrix", "" ],
                    "patching_rect": [ 277.0, 207.0, 103.0, 22.0 ],
                    "text": "jit.noise 1 char 10"
                }
            },
            {
                "box": {
                    "id": "obj-2",
                    "linecount": 4,
                    "maxclass": "comment",
                    "numinlets": 1,
                    "numoutlets": 0,
                    "patching_rect": [ 22.0, 20.0, 360.0, 62.0 ],
                    "text": "video is codec = compress / decompress algorithm\n      compresses for storage, decompresses for playback\n      max converts video format to a matrix of pixels to read it\nwhereas audio just compresses"
                }
            },
            {
                "box": {
                    "attr": "dim",
                    "id": "obj-28",
                    "maxclass": "attrui",
                    "numinlets": 1,
                    "numoutlets": 1,
                    "outlettype": [ "" ],
                    "parameter_enable": 0,
                    "patching_rect": [ 704.0, 169.0, 150.0, 22.0 ]
                }
            },
            {
                "box": {
                    "attr": "plane",
                    "id": "obj-85",
                    "maxclass": "attrui",
                    "numinlets": 1,
                    "numoutlets": 1,
                    "outlettype": [ "" ],
                    "parameter_enable": 0,
                    "patching_rect": [ 1054.0, 185.0, 150.0, 22.0 ]
                }
            }
        ],
        "lines": [
            {
                "patchline": {
                    "destination": [ "obj-102", 0 ],
                    "order": 0,
                    "source": [ "obj-101", 0 ]
                }
            },
            {
                "patchline": {
                    "destination": [ "obj-94", 0 ],
                    "order": 1,
                    "source": [ "obj-101", 0 ]
                }
            },
            {
                "patchline": {
                    "destination": [ "obj-3", 0 ],
                    "source": [ "obj-18", 0 ]
                }
            },
            {
                "patchline": {
                    "destination": [ "obj-21", 0 ],
                    "source": [ "obj-19", 0 ]
                }
            },
            {
                "patchline": {
                    "destination": [ "obj-20", 0 ],
                    "source": [ "obj-21", 0 ]
                }
            },
            {
                "patchline": {
                    "destination": [ "obj-21", 0 ],
                    "source": [ "obj-28", 0 ]
                }
            },
            {
                "patchline": {
                    "destination": [ "obj-10", 0 ],
                    "source": [ "obj-3", 0 ]
                }
            },
            {
                "patchline": {
                    "destination": [ "obj-33", 0 ],
                    "source": [ "obj-31", 0 ]
                }
            },
            {
                "patchline": {
                    "destination": [ "obj-47", 0 ],
                    "source": [ "obj-32", 0 ]
                }
            },
            {
                "patchline": {
                    "destination": [ "obj-32", 0 ],
                    "source": [ "obj-33", 0 ]
                }
            },
            {
                "patchline": {
                    "destination": [ "obj-31", 0 ],
                    "source": [ "obj-38", 0 ]
                }
            },
            {
                "patchline": {
                    "destination": [ "obj-38", 0 ],
                    "source": [ "obj-40", 0 ]
                }
            },
            {
                "patchline": {
                    "destination": [ "obj-38", 1 ],
                    "source": [ "obj-42", 0 ]
                }
            },
            {
                "patchline": {
                    "destination": [ "obj-59", 1 ],
                    "source": [ "obj-57", 0 ]
                }
            },
            {
                "patchline": {
                    "destination": [ "obj-59", 0 ],
                    "source": [ "obj-58", 0 ]
                }
            },
            {
                "patchline": {
                    "destination": [ "obj-62", 0 ],
                    "source": [ "obj-59", 0 ]
                }
            },
            {
                "patchline": {
                    "destination": [ "obj-64", 0 ],
                    "source": [ "obj-62", 0 ]
                }
            },
            {
                "patchline": {
                    "destination": [ "obj-65", 0 ],
                    "source": [ "obj-63", 0 ]
                }
            },
            {
                "patchline": {
                    "destination": [ "obj-63", 0 ],
                    "source": [ "obj-64", 0 ]
                }
            },
            {
                "patchline": {
                    "destination": [ "obj-81", 0 ],
                    "source": [ "obj-78", 0 ]
                }
            },
            {
                "patchline": {
                    "destination": [ "obj-82", 0 ],
                    "source": [ "obj-81", 0 ]
                }
            },
            {
                "patchline": {
                    "destination": [ "obj-89", 0 ],
                    "source": [ "obj-82", 0 ]
                }
            },
            {
                "patchline": {
                    "destination": [ "obj-82", 0 ],
                    "source": [ "obj-84", 0 ]
                }
            },
            {
                "patchline": {
                    "destination": [ "obj-81", 0 ],
                    "source": [ "obj-85", 0 ]
                }
            },
            {
                "patchline": {
                    "destination": [ "obj-95", 0 ],
                    "source": [ "obj-94", 0 ]
                }
            }
        ],
        "autosave": 0
    }
}