{
    "patcher": {
        "fileversion": 1,
        "appversion": {
            "major": 9,
            "minor": 1,
            "revision": 2,
            "architecture": "x64",
            "modernui": 1
        },
        "classnamespace": "box",
        "rect": [ 27.0, 84.0, 1639.0, 802.0 ],
        "boxes": [
            {
                "box": {
                    "id": "obj-33",
                    "maxclass": "comment",
                    "numinlets": 1,
                    "numoutlets": 0,
                    "patching_rect": [ 526.0, 156.0, 58.0, 20.0 ],
                    "text": "vdevlist"
                }
            },
            {
                "box": {
                    "id": "obj-31",
                    "linecount": 2,
                    "maxclass": "comment",
                    "numinlets": 1,
                    "numoutlets": 0,
                    "patching_rect": [ 522.0, 398.0, 150.0, 34.0 ],
                    "text": "create device variable from selected camera"
                }
            },
            {
                "box": {
                    "id": "obj-29",
                    "maxclass": "message",
                    "numinlets": 2,
                    "numoutlets": 1,
                    "outlettype": [ "" ],
                    "patching_rect": [ 450.0, 395.0, 66.0, 22.0 ],
                    "text": "vdevice $1"
                }
            },
            {
                "box": {
                    "id": "obj-27",
                    "linecount": 2,
                    "maxclass": "message",
                    "numinlets": 2,
                    "numoutlets": 1,
                    "outlettype": [ "" ],
                    "patching_rect": [ 650.0, 207.0, 278.0, 36.0 ],
                    "text": "\"Integrated Webcam\" \"DroidCam Video\" \"OBS Virtual Camera\""
                }
            },
            {
                "box": {
                    "id": "obj-25",
                    "maxclass": "comment",
                    "numinlets": 1,
                    "numoutlets": 0,
                    "patching_rect": [ 572.0, 358.0, 70.0, 20.0 ],
                    "text": "umenu"
                }
            },
            {
                "box": {
                    "id": "obj-23",
                    "items": [ "Integrated Webcam", ",", "DroidCam Video", ",", "OBS Virtual Camera" ],
                    "maxclass": "umenu",
                    "numinlets": 1,
                    "numoutlets": 3,
                    "outlettype": [ "int", "", "" ],
                    "parameter_enable": 0,
                    "patching_rect": [ 450.0, 357.0, 100.0, 22.0 ]
                }
            },
            {
                "box": {
                    "id": "obj-19",
                    "linecount": 3,
                    "maxclass": "comment",
                    "numinlets": 1,
                    "numoutlets": 0,
                    "patching_rect": [ 411.0, 86.0, 253.0, 48.0 ],
                    "text": "get list of all available cameras on your computer, so if it doesn't auto select, or you want to switch, you can"
                }
            },
            {
                "box": {
                    "id": "obj-17",
                    "maxclass": "newobj",
                    "numinlets": 1,
                    "numoutlets": 1,
                    "outlettype": [ "" ],
                    "patching_rect": [ 450.0, 309.0, 96.0, 22.0 ],
                    "text": "prepend append"
                }
            },
            {
                "box": {
                    "id": "obj-15",
                    "linecount": 2,
                    "maxclass": "comment",
                    "numinlets": 1,
                    "numoutlets": 0,
                    "patching_rect": [ 486.0, 249.0, 150.0, 34.0 ],
                    "text": "breaks list into individual messages"
                }
            },
            {
                "box": {
                    "id": "obj-11",
                    "maxclass": "newobj",
                    "numinlets": 1,
                    "numoutlets": 1,
                    "outlettype": [ "" ],
                    "patching_rect": [ 450.0, 249.0, 25.0, 22.0 ],
                    "text": "iter"
                }
            },
            {
                "box": {
                    "id": "obj-9",
                    "maxclass": "newobj",
                    "numinlets": 2,
                    "numoutlets": 2,
                    "outlettype": [ "", "" ],
                    "patching_rect": [ 450.0, 207.0, 79.0, 22.0 ],
                    "text": "route vdevlist"
                }
            },
            {
                "box": {
                    "id": "obj-5",
                    "maxclass": "message",
                    "numinlets": 2,
                    "numoutlets": 1,
                    "outlettype": [ "" ],
                    "patching_rect": [ 450.0, 155.0, 65.0, 22.0 ],
                    "text": "getvdevlist"
                }
            },
            {
                "box": {
                    "id": "obj-16",
                    "maxclass": "comment",
                    "numinlets": 1,
                    "numoutlets": 0,
                    "patching_rect": [ 134.0, 119.0, 150.0, 20.0 ],
                    "text": "refresh rate, ms(?)"
                }
            },
            {
                "box": {
                    "id": "obj-14",
                    "maxclass": "message",
                    "numinlets": 2,
                    "numoutlets": 1,
                    "outlettype": [ "" ],
                    "patching_rect": [ 342.0, 155.0, 37.0, 22.0 ],
                    "text": "close"
                }
            },
            {
                "box": {
                    "id": "obj-12",
                    "maxclass": "message",
                    "numinlets": 2,
                    "numoutlets": 1,
                    "outlettype": [ "" ],
                    "patching_rect": [ 295.0, 155.0, 35.0, 22.0 ],
                    "text": "open"
                }
            },
            {
                "box": {
                    "id": "obj-10",
                    "maxclass": "comment",
                    "numinlets": 1,
                    "numoutlets": 0,
                    "patching_rect": [ 281.0, 389.0, 81.0, 20.0 ],
                    "text": "jit.pwindow"
                }
            },
            {
                "box": {
                    "id": "obj-8",
                    "maxclass": "jit.pwindow",
                    "numinlets": 1,
                    "numoutlets": 2,
                    "outlettype": [ "jit_matrix", "" ],
                    "patching_rect": [ 62.0, 333.0, 207.0, 120.0 ],
                    "presentation": 1,
                    "presentation_rect": [ 25.0, 189.0, 207.0, 120.0 ],
                    "sync": 1
                }
            },
            {
                "box": {
                    "id": "obj-7",
                    "maxclass": "newobj",
                    "numinlets": 1,
                    "numoutlets": 2,
                    "outlettype": [ "jit_matrix", "" ],
                    "patching_rect": [ 61.0, 290.0, 137.0, 22.0 ],
                    "text": "jit.matrix 4 char 320 240"
                }
            },
            {
                "box": {
                    "id": "obj-6",
                    "maxclass": "comment",
                    "numinlets": 1,
                    "numoutlets": 0,
                    "patching_rect": [ 163.0, 202.0, 150.0, 20.0 ],
                    "text": "turn on camera, resolution"
                }
            },
            {
                "box": {
                    "id": "obj-4",
                    "maxclass": "newobj",
                    "numinlets": 1,
                    "numoutlets": 2,
                    "outlettype": [ "jit_matrix", "" ],
                    "patching_rect": [ 63.0, 201.0, 91.0, 22.0 ],
                    "text": "jit.grab 320 240"
                }
            },
            {
                "box": {
                    "id": "obj-3",
                    "maxclass": "newobj",
                    "numinlets": 2,
                    "numoutlets": 1,
                    "outlettype": [ "bang" ],
                    "patching_rect": [ 62.0, 118.0, 63.0, 22.0 ],
                    "text": "qmetro 60"
                }
            },
            {
                "box": {
                    "id": "obj-2",
                    "maxclass": "toggle",
                    "numinlets": 1,
                    "numoutlets": 1,
                    "outlettype": [ "int" ],
                    "parameter_enable": 0,
                    "patching_rect": [ 62.0, 74.0, 24.0, 24.0 ]
                }
            }
        ],
        "lines": [
            {
                "patchline": {
                    "destination": [ "obj-17", 0 ],
                    "source": [ "obj-11", 0 ]
                }
            },
            {
                "patchline": {
                    "destination": [ "obj-4", 0 ],
                    "midpoints": [ 304.5, 180.0, 72.5, 180.0 ],
                    "source": [ "obj-12", 0 ]
                }
            },
            {
                "patchline": {
                    "destination": [ "obj-4", 0 ],
                    "midpoints": [ 351.5, 189.0, 72.5, 189.0 ],
                    "source": [ "obj-14", 0 ]
                }
            },
            {
                "patchline": {
                    "destination": [ "obj-23", 0 ],
                    "source": [ "obj-17", 0 ]
                }
            },
            {
                "patchline": {
                    "destination": [ "obj-3", 0 ],
                    "source": [ "obj-2", 0 ]
                }
            },
            {
                "patchline": {
                    "destination": [ "obj-29", 0 ],
                    "source": [ "obj-23", 0 ]
                }
            },
            {
                "patchline": {
                    "destination": [ "obj-4", 0 ],
                    "source": [ "obj-29", 0 ]
                }
            },
            {
                "patchline": {
                    "destination": [ "obj-4", 0 ],
                    "source": [ "obj-3", 0 ]
                }
            },
            {
                "patchline": {
                    "destination": [ "obj-7", 0 ],
                    "source": [ "obj-4", 0 ]
                }
            },
            {
                "patchline": {
                    "destination": [ "obj-9", 0 ],
                    "midpoints": [ 144.5, 234.0, 435.0, 234.0, 435.0, 204.0, 459.5, 204.0 ],
                    "source": [ "obj-4", 1 ]
                }
            },
            {
                "patchline": {
                    "destination": [ "obj-4", 0 ],
                    "source": [ "obj-5", 0 ]
                }
            },
            {
                "patchline": {
                    "destination": [ "obj-8", 0 ],
                    "source": [ "obj-7", 0 ]
                }
            },
            {
                "patchline": {
                    "destination": [ "obj-11", 0 ],
                    "order": 1,
                    "source": [ "obj-9", 0 ]
                }
            },
            {
                "patchline": {
                    "destination": [ "obj-27", 1 ],
                    "midpoints": [ 459.5, 231.0, 636.0, 231.0, 636.0, 201.0, 918.5, 201.0 ],
                    "order": 0,
                    "source": [ "obj-9", 0 ]
                }
            }
        ],
        "autosave": 0
    }
}