{
    "patcher": {
        "fileversion": 1,
        "appversion": {
            "major": 9,
            "minor": 1,
            "revision": 2,
            "architecture": "x64",
            "modernui": 1
        },
        "classnamespace": "box",
        "rect": [ 59.0, 107.0, 1000.0, 730.0 ],
        "boxes": [
            {
                "box": {
                    "id": "obj-69",
                    "maxclass": "ezdac~",
                    "numinlets": 2,
                    "numoutlets": 0,
                    "patching_rect": [ 359.75610613822937, 576.8292820453644, 45.0, 45.0 ]
                }
            },
            {
                "box": {
                    "id": "obj-68",
                    "maxclass": "comment",
                    "numinlets": 1,
                    "numoutlets": 0,
                    "patching_rect": [ 696.3414800167084, 582.8292808532715, 51.0, 20.0 ],
                    "text": "scope~"
                }
            },
            {
                "box": {
                    "id": "obj-67",
                    "maxclass": "comment",
                    "numinlets": 1,
                    "numoutlets": 0,
                    "patching_rect": [ 729.2683100700378, 241.46342039108276, 51.0, 20.0 ],
                    "text": "scope~"
                }
            },
            {
                "box": {
                    "id": "obj-66",
                    "maxclass": "comment",
                    "numinlets": 1,
                    "numoutlets": 0,
                    "patching_rect": [ 729.2683100700378, 397.0, 51.0, 20.0 ],
                    "text": "scope~"
                }
            },
            {
                "box": {
                    "automatic": 1,
                    "id": "obj-65",
                    "maxclass": "scope~",
                    "numinlets": 2,
                    "numoutlets": 0,
                    "patching_rect": [ 558.5365986824036, 527.8292808532715, 130.0, 130.0 ]
                }
            },
            {
                "box": {
                    "id": "obj-63",
                    "maxclass": "comment",
                    "numinlets": 1,
                    "numoutlets": 0,
                    "patching_rect": [ 394.0, 527.8292808532715, 150.0, 20.0 ],
                    "text": "multiply signals together"
                }
            },
            {
                "box": {
                    "id": "obj-61",
                    "maxclass": "newobj",
                    "numinlets": 2,
                    "numoutlets": 1,
                    "outlettype": [ "signal" ],
                    "patching_rect": [ 359.75610613822937, 526.8292808532715, 29.5, 22.0 ],
                    "text": "*~"
                }
            },
            {
                "box": {
                    "id": "obj-60",
                    "maxclass": "comment",
                    "numinlets": 1,
                    "numoutlets": 0,
                    "patching_rect": [ 494.0, 262.0, 60.44775903224945, 20.0 ],
                    "text": "live.gain~"
                }
            },
            {
                "box": {
                    "id": "obj-58",
                    "lastchannelcount": 0,
                    "maxclass": "live.gain~",
                    "numinlets": 2,
                    "numoutlets": 5,
                    "outlettype": [ "signal", "signal", "", "float", "list" ],
                    "parameter_enable": 1,
                    "patching_rect": [ 425.0, 206.0, 69.0, 146.0 ],
                    "saved_attribute_attributes": {
                        "valueof": {
                            "parameter_longname": "live.gain~",
                            "parameter_mmax": 6.0,
                            "parameter_mmin": -70.0,
                            "parameter_modmode": 3,
                            "parameter_shortname": "live.gain~",
                            "parameter_type": 0,
                            "parameter_unitstyle": 4
                        }
                    },
                    "varname": "live.gain~"
                }
            },
            {
                "box": {
                    "id": "obj-48",
                    "maxclass": "number",
                    "numinlets": 1,
                    "numoutlets": 2,
                    "outlettype": [ "", "bang" ],
                    "parameter_enable": 0,
                    "patching_rect": [ 436.0, 101.0, 50.0, 22.0 ]
                }
            },
            {
                "box": {
                    "automatic": 1,
                    "id": "obj-49",
                    "maxclass": "scope~",
                    "numinlets": 2,
                    "numoutlets": 0,
                    "patching_rect": [ 587.0, 339.0, 130.0, 130.0 ]
                }
            },
            {
                "box": {
                    "id": "obj-50",
                    "maxclass": "comment",
                    "numinlets": 1,
                    "numoutlets": 0,
                    "patching_rect": [ 344.0, 397.0, 51.0, 20.0 ],
                    "text": "scope~"
                }
            },
            {
                "box": {
                    "automatic": 1,
                    "id": "obj-51",
                    "maxclass": "scope~",
                    "numinlets": 2,
                    "numoutlets": 0,
                    "patching_rect": [ 587.0, 193.0, 130.0, 130.0 ]
                }
            },
            {
                "box": {
                    "id": "obj-52",
                    "maxclass": "comment",
                    "numinlets": 1,
                    "numoutlets": 0,
                    "patching_rect": [ 494.0, 382.0, 50.0, 20.0 ],
                    "text": "ezdac~"
                }
            },
            {
                "box": {
                    "id": "obj-56",
                    "maxclass": "newobj",
                    "numinlets": 2,
                    "numoutlets": 1,
                    "outlettype": [ "signal" ],
                    "patching_rect": [ 436.0, 147.0, 66.0, 22.0 ],
                    "text": "cycle~ 220"
                }
            },
            {
                "box": {
                    "attr": "automatic",
                    "id": "obj-57",
                    "maxclass": "attrui",
                    "numinlets": 1,
                    "numoutlets": 1,
                    "outlettype": [ "" ],
                    "parameter_enable": 0,
                    "patching_rect": [ 587.0, 162.0, 150.0, 22.0 ]
                }
            },
            {
                "box": {
                    "id": "obj-45",
                    "maxclass": "comment",
                    "numinlets": 1,
                    "numoutlets": 0,
                    "patching_rect": [ 340.24391055107117, 754.878066778183, 94.0, 20.0 ],
                    "text": "PWM possible"
                }
            },
            {
                "box": {
                    "id": "obj-44",
                    "maxclass": "comment",
                    "numinlets": 1,
                    "numoutlets": 0,
                    "patching_rect": [ 67.07317233085632, 754.878066778183, 150.0, 20.0 ],
                    "text": "Square:"
                }
            },
            {
                "box": {
                    "id": "obj-42",
                    "maxclass": "newobj",
                    "numinlets": 3,
                    "numoutlets": 1,
                    "outlettype": [ "signal" ],
                    "patching_rect": [ 18.292683362960815, 753.6585545539856, 40.0, 22.0 ],
                    "text": "rect~"
                }
            },
            {
                "box": {
                    "id": "obj-41",
                    "maxclass": "comment",
                    "numinlets": 1,
                    "numoutlets": 0,
                    "patching_rect": [ 340.24391055107117, 682.9268455505371, 94.0, 20.0 ],
                    "text": "PWM possible"
                }
            },
            {
                "box": {
                    "id": "obj-39",
                    "maxclass": "comment",
                    "numinlets": 1,
                    "numoutlets": 0,
                    "patching_rect": [ 67.07317233085632, 718.2927000522614, 253.0, 20.0 ],
                    "text": "Sawtooth: good for brass and bass"
                }
            },
            {
                "box": {
                    "id": "obj-37",
                    "maxclass": "newobj",
                    "numinlets": 2,
                    "numoutlets": 1,
                    "outlettype": [ "signal" ],
                    "patching_rect": [ 17.073171138763428, 717.073187828064, 37.0, 22.0 ],
                    "text": "saw~"
                }
            },
            {
                "box": {
                    "id": "obj-36",
                    "maxclass": "comment",
                    "numinlets": 1,
                    "numoutlets": 0,
                    "patching_rect": [ 92.68292903900146, 648.7805032730103, 150.0, 20.0 ],
                    "text": "Sinusoid"
                }
            },
            {
                "box": {
                    "id": "obj-32",
                    "maxclass": "comment",
                    "numinlets": 1,
                    "numoutlets": 0,
                    "patching_rect": [ 73.17073345184326, 682.9268455505371, 246.0, 20.0 ],
                    "text": "Triangle: good for reeded instruments"
                }
            },
            {
                "box": {
                    "id": "obj-29",
                    "maxclass": "comment",
                    "numinlets": 1,
                    "numoutlets": 0,
                    "patching_rect": [ 147.0, 102.0, 114.0, 20.0 ],
                    "text": "Duty Cycle (0.-1.)"
                }
            },
            {
                "box": {
                    "format": 6,
                    "id": "obj-27",
                    "maxclass": "flonum",
                    "maximum": 1.0,
                    "minimum": 0.0,
                    "numinlets": 1,
                    "numoutlets": 2,
                    "outlettype": [ "", "bang" ],
                    "parameter_enable": 0,
                    "patching_rect": [ 91.0, 101.0, 50.0, 22.0 ]
                }
            },
            {
                "box": {
                    "id": "obj-23",
                    "maxclass": "newobj",
                    "numinlets": 3,
                    "numoutlets": 1,
                    "outlettype": [ "signal" ],
                    "patching_rect": [ 17.073171138763428, 682.9268455505371, 49.0, 22.0 ],
                    "text": "tri~ 220"
                }
            },
            {
                "box": {
                    "id": "obj-22",
                    "maxclass": "comment",
                    "numinlets": 1,
                    "numoutlets": 0,
                    "patching_rect": [ 17.073171138763428, 619.512209892273, 206.0, 20.0 ],
                    "text": "Types of waves:"
                }
            },
            {
                "box": {
                    "id": "obj-20",
                    "maxclass": "newobj",
                    "numinlets": 2,
                    "numoutlets": 1,
                    "outlettype": [ "signal" ],
                    "patching_rect": [ 17.073171138763428, 647.5609910488129, 66.0, 22.0 ],
                    "text": "cycle~ 220"
                }
            },
            {
                "box": {
                    "id": "obj-19",
                    "maxclass": "number",
                    "numinlets": 1,
                    "numoutlets": 2,
                    "outlettype": [ "", "bang" ],
                    "parameter_enable": 0,
                    "patching_rect": [ 45.0, 56.0, 50.0, 22.0 ]
                }
            },
            {
                "box": {
                    "automatic": 1,
                    "id": "obj-17",
                    "maxclass": "scope~",
                    "numinlets": 2,
                    "numoutlets": 0,
                    "patching_rect": [ 196.0, 342.0, 130.0, 130.0 ]
                }
            },
            {
                "box": {
                    "id": "obj-15",
                    "maxclass": "comment",
                    "numinlets": 1,
                    "numoutlets": 0,
                    "patching_rect": [ 344.0, 255.0, 51.0, 20.0 ],
                    "text": "scope~"
                }
            },
            {
                "box": {
                    "automatic": 1,
                    "id": "obj-13",
                    "maxclass": "scope~",
                    "numinlets": 2,
                    "numoutlets": 0,
                    "patching_rect": [ 196.0, 195.0, 130.0, 130.0 ]
                }
            },
            {
                "box": {
                    "id": "obj-12",
                    "maxclass": "comment",
                    "numinlets": 1,
                    "numoutlets": 0,
                    "patching_rect": [ 104.0, 369.0, 50.0, 20.0 ],
                    "text": "ezdac~"
                }
            },
            {
                "box": {
                    "id": "obj-5",
                    "maxclass": "comment",
                    "numinlets": 1,
                    "numoutlets": 0,
                    "patching_rect": [ 107.0, 252.0, 45.0, 20.0 ],
                    "text": "gain~"
                }
            },
            {
                "box": {
                    "id": "obj-3",
                    "maxclass": "gain~",
                    "multichannelvariant": 0,
                    "numinlets": 1,
                    "numoutlets": 2,
                    "outlettype": [ "signal", "" ],
                    "parameter_enable": 0,
                    "patching_rect": [ 45.0, 194.0, 51.0, 142.0 ]
                }
            },
            {
                "box": {
                    "id": "obj-2",
                    "maxclass": "newobj",
                    "numinlets": 3,
                    "numoutlets": 1,
                    "outlettype": [ "signal" ],
                    "patching_rect": [ 45.0, 149.0, 59.0, 22.0 ],
                    "text": "rect~ 220"
                }
            },
            {
                "box": {
                    "attr": "automatic",
                    "id": "obj-16",
                    "maxclass": "attrui",
                    "numinlets": 1,
                    "numoutlets": 1,
                    "outlettype": [ "" ],
                    "parameter_enable": 0,
                    "patching_rect": [ 196.0, 165.0, 150.0, 22.0 ]
                }
            }
        ],
        "lines": [
            {
                "patchline": {
                    "destination": [ "obj-13", 0 ],
                    "source": [ "obj-16", 0 ]
                }
            },
            {
                "patchline": {
                    "destination": [ "obj-2", 0 ],
                    "source": [ "obj-19", 0 ]
                }
            },
            {
                "patchline": {
                    "destination": [ "obj-13", 0 ],
                    "order": 0,
                    "source": [ "obj-2", 0 ]
                }
            },
            {
                "patchline": {
                    "destination": [ "obj-3", 0 ],
                    "order": 1,
                    "source": [ "obj-2", 0 ]
                }
            },
            {
                "patchline": {
                    "destination": [ "obj-2", 1 ],
                    "source": [ "obj-27", 0 ]
                }
            },
            {
                "patchline": {
                    "destination": [ "obj-17", 0 ],
                    "order": 1,
                    "source": [ "obj-3", 0 ]
                }
            },
            {
                "patchline": {
                    "destination": [ "obj-61", 0 ],
                    "midpoints": [ 54.5, 339.0, 183.0, 339.0, 183.0, 513.0, 369.25610613822937, 513.0 ],
                    "order": 0,
                    "source": [ "obj-3", 0 ]
                }
            },
            {
                "patchline": {
                    "destination": [ "obj-56", 0 ],
                    "source": [ "obj-48", 0 ]
                }
            },
            {
                "patchline": {
                    "destination": [ "obj-51", 0 ],
                    "midpoints": [ 445.5, 189.0, 596.5, 189.0 ],
                    "order": 0,
                    "source": [ "obj-56", 0 ]
                }
            },
            {
                "patchline": {
                    "destination": [ "obj-58", 1 ],
                    "midpoints": [ 445.5, 192.0, 484.5, 192.0 ],
                    "order": 1,
                    "source": [ "obj-56", 0 ]
                }
            },
            {
                "patchline": {
                    "destination": [ "obj-58", 0 ],
                    "midpoints": [ 445.5, 192.0, 434.5, 192.0 ],
                    "order": 2,
                    "source": [ "obj-56", 0 ]
                }
            },
            {
                "patchline": {
                    "destination": [ "obj-51", 0 ],
                    "source": [ "obj-57", 0 ]
                }
            },
            {
                "patchline": {
                    "destination": [ "obj-61", 1 ],
                    "midpoints": [ 434.5, 354.0, 405.0, 354.0, 405.0, 513.0, 379.75610613822937, 513.0 ],
                    "source": [ "obj-58", 0 ]
                }
            },
            {
                "patchline": {
                    "destination": [ "obj-65", 0 ],
                    "midpoints": [ 369.25610613822937, 549.0, 390.0, 549.0, 390.0, 513.0, 568.0365986824036, 513.0 ],
                    "order": 0,
                    "source": [ "obj-61", 0 ]
                }
            },
            {
                "patchline": {
                    "destination": [ "obj-69", 1 ],
                    "order": 1,
                    "source": [ "obj-61", 0 ]
                }
            },
            {
                "patchline": {
                    "destination": [ "obj-69", 0 ],
                    "order": 2,
                    "source": [ "obj-61", 0 ]
                }
            }
        ],
        "parameters": {
            "obj-58": [ "live.gain~", "live.gain~", 0 ],
            "parameterbanks": {
                "0": {
                    "index": 0,
                    "name": "",
                    "parameters": [ "-", "-", "-", "-", "-", "-", "-", "-" ],
                    "buttons": [ "-", "-", "-", "-", "-", "-", "-", "-" ]
                }
            },
            "inherited_shortname": 1
        },
        "autosave": 0
    }
}